<svg aria-hidden="true" style="position: absolute; width: 0; height: 0; overflow: hidden;" version="1.1" xmlns="http://www.w3.org/2000/svg" xmlns:xlink="http://www.w3.org/1999/xlink">
<defs>
<symbol id="icon-Vector-1" viewBox="0 0 16 32">
<path stroke-linejoin="miter" stroke-linecap="butt" stroke-miterlimit="4" stroke-width="0.3137" d="M0.314 0.314l15.686 15.686-15.686 15.686"></path>
</symbol>
<symbol id="icon-Lupa-Vector" viewBox="0 0 32 32">
<path stroke-linejoin="miter" stroke-linecap="butt" stroke-miterlimit="4" stroke-width="4" d="M24.087 13.043c0 6.099-4.944 11.043-11.043 11.043s-11.043-4.944-11.043-11.043c0-6.099 4.944-11.043 11.043-11.043s11.043 4.944 11.043 11.043z"></path>
<path d="M28.586 31.414c0.781 0.781 2.047 0.781 2.828 0s0.781-2.047 0-2.828l-2.828 2.828zM22.936 20.108l-1.414-1.414-2.828 2.828 1.414 1.414 2.828-2.828zM31.414 28.586l-8.478-8.478-2.828 2.828 8.478 8.478 2.828-2.828z"></path>
</symbol>
<symbol id="icon-Vector-2" viewBox="0 0 50 32">
<path stroke-linejoin="round" stroke-linecap="round" stroke-miterlimit="4" stroke-width="3.4286" d="M45.714 4.571l-20.571 22.857-20.571-22.857"></path>
</symbol>
<symbol id="icon-Vector-Logo" viewBox="0 0 76 32">
<path stroke-linejoin="round" stroke-linecap="round" stroke-miterlimit="4" stroke-width="1.6" d="M8.8 9.943l-8 8 8 8"></path>
<path stroke-linejoin="round" stroke-linecap="round" stroke-miterlimit="4" stroke-width="1.6" d="M24.8 9.943l8 8-8 8"></path>
<path d="M19.628 4.034l-6.869 25.637c-0.093 0.348-0.451 0.555-0.8 0.462s-0.555-0.451-0.462-0.8l6.869-25.637c0.093-0.348 0.451-0.555 0.8-0.462s0.555 0.451 0.462 0.8z"></path>
<path d="M18.366 3.696c0.093-0.348 0.451-0.555 0.8-0.462s0.555 0.451 0.462 0.8l-0.837 3.123-1.262-0.338 0.837-3.123z"></path>
<path stroke-linejoin="miter" stroke-linecap="round" stroke-miterlimit="4" stroke-width="0.8" d="M20.556 5.618l2.523 0.676"></path>
<path stroke-linejoin="miter" stroke-linecap="round" stroke-miterlimit="4" stroke-width="0.8" d="M14.248 3.928l2.523 0.676"></path>
<path stroke-linejoin="miter" stroke-linecap="round" stroke-miterlimit="4" stroke-width="0.8" d="M15.717 0.969l1.31 2.247"></path>
<path stroke-linejoin="miter" stroke-linecap="round" stroke-miterlimit="4" stroke-width="0.8" d="M14.069 7.117l2.258-1.291"></path>
<path stroke-linejoin="miter" stroke-linecap="round" stroke-miterlimit="4" stroke-width="0.8" d="M20.22 6.869l1.31 2.247"></path>
<path stroke-linejoin="miter" stroke-linecap="round" stroke-miterlimit="4" stroke-width="0.8" d="M20.92 4.26l2.258-1.291"></path>
<path d="M44.013 12.058c-0.666 0-1.267-0.147-1.805-0.442-0.531-0.294-0.95-0.701-1.258-1.219-0.301-0.525-0.451-1.11-0.451-1.757s0.15-1.229 0.451-1.747c0.307-0.525 0.73-0.934 1.267-1.229s1.139-0.442 1.805-0.442c0.499 0 0.96 0.083 1.382 0.25s0.781 0.41 1.075 0.73l-0.451 0.451c-0.525-0.531-1.187-0.797-1.987-0.797-0.531 0-1.014 0.122-1.45 0.365s-0.778 0.576-1.027 0.998c-0.243 0.422-0.365 0.896-0.365 1.421s0.122 0.998 0.365 1.421c0.25 0.422 0.592 0.755 1.027 0.998s0.918 0.365 1.45 0.365c0.806 0 1.469-0.269 1.987-0.806l0.451 0.451c-0.294 0.32-0.656 0.566-1.085 0.739-0.422 0.166-0.883 0.25-1.382 0.25zM49.689 12.048c-0.486 0-0.925-0.109-1.315-0.326-0.39-0.224-0.698-0.531-0.922-0.922s-0.336-0.832-0.336-1.325c0-0.493 0.112-0.934 0.336-1.325s0.531-0.694 0.922-0.912c0.39-0.218 0.829-0.326 1.315-0.326s0.925 0.109 1.315 0.326c0.39 0.218 0.694 0.522 0.912 0.912 0.224 0.39 0.336 0.832 0.336 1.325s-0.112 0.934-0.336 1.325c-0.218 0.39-0.522 0.698-0.912 0.922-0.39 0.218-0.829 0.326-1.315 0.326zM49.689 11.443c0.358 0 0.678-0.080 0.96-0.24 0.288-0.166 0.512-0.4 0.672-0.701s0.24-0.643 0.24-1.027c0-0.384-0.080-0.726-0.24-1.027s-0.384-0.531-0.672-0.691c-0.282-0.166-0.602-0.25-0.96-0.25s-0.682 0.083-0.97 0.25c-0.282 0.16-0.506 0.39-0.672 0.691-0.16 0.301-0.24 0.643-0.24 1.027s0.080 0.726 0.24 1.027c0.166 0.301 0.39 0.534 0.672 0.701 0.288 0.16 0.611 0.24 0.97 0.24zM58.252 4.877v7.123h-0.653v-0.998c-0.205 0.339-0.477 0.598-0.816 0.778-0.333 0.179-0.71 0.269-1.133 0.269-0.474 0-0.902-0.109-1.286-0.326s-0.685-0.522-0.902-0.912c-0.218-0.39-0.326-0.835-0.326-1.334s0.109-0.944 0.326-1.334c0.218-0.39 0.518-0.691 0.902-0.902 0.384-0.218 0.813-0.326 1.286-0.326 0.41 0 0.778 0.086 1.104 0.259 0.333 0.166 0.605 0.413 0.816 0.739v-3.034h0.682zM55.708 11.443c0.352 0 0.669-0.080 0.95-0.24 0.288-0.166 0.512-0.4 0.672-0.701 0.166-0.301 0.25-0.643 0.25-1.027s-0.083-0.726-0.25-1.027c-0.16-0.301-0.384-0.531-0.672-0.691-0.282-0.166-0.598-0.25-0.95-0.25-0.358 0-0.682 0.083-0.97 0.25-0.282 0.16-0.506 0.39-0.672 0.691-0.16 0.301-0.24 0.643-0.24 1.027s0.080 0.726 0.24 1.027c0.166 0.301 0.39 0.534 0.672 0.701 0.288 0.16 0.611 0.24 0.97 0.24zM60.15 6.95h0.682v5.050h-0.682v-5.050zM60.496 5.846c-0.141 0-0.259-0.048-0.355-0.144s-0.144-0.211-0.144-0.346c0-0.128 0.048-0.24 0.144-0.336s0.214-0.144 0.355-0.144c0.141 0 0.259 0.048 0.355 0.144 0.096 0.090 0.144 0.198 0.144 0.326 0 0.141-0.048 0.259-0.144 0.355s-0.214 0.144-0.355 0.144zM65.301 6.912c0.634 0 1.136 0.186 1.507 0.557 0.378 0.365 0.566 0.899 0.566 1.603v2.928h-0.682v-2.861c0-0.525-0.131-0.925-0.394-1.2s-0.637-0.413-1.123-0.413c-0.544 0-0.976 0.163-1.296 0.49-0.314 0.32-0.47 0.765-0.47 1.334v2.65h-0.682v-5.050h0.653v0.931c0.186-0.307 0.442-0.544 0.768-0.71 0.333-0.173 0.717-0.259 1.152-0.259zM73.919 6.95v4.435c0 0.858-0.211 1.491-0.634 1.901-0.416 0.416-1.046 0.624-1.891 0.624-0.467 0-0.912-0.070-1.334-0.211-0.416-0.134-0.755-0.323-1.018-0.566l0.346-0.518c0.243 0.218 0.538 0.387 0.883 0.509 0.352 0.122 0.72 0.182 1.104 0.182 0.64 0 1.11-0.15 1.411-0.451 0.301-0.294 0.451-0.755 0.451-1.382v-0.643c-0.211 0.32-0.49 0.563-0.835 0.73-0.339 0.166-0.717 0.25-1.133 0.25-0.474 0-0.906-0.102-1.296-0.307-0.384-0.211-0.688-0.502-0.912-0.874-0.218-0.378-0.326-0.803-0.326-1.277s0.109-0.896 0.326-1.267c0.224-0.371 0.528-0.659 0.912-0.864s0.816-0.307 1.296-0.307c0.429 0 0.816 0.086 1.162 0.259s0.624 0.422 0.835 0.749v-0.97h0.653zM71.337 11.203c0.365 0 0.694-0.077 0.989-0.23 0.294-0.16 0.522-0.381 0.682-0.662 0.166-0.282 0.25-0.602 0.25-0.96s-0.083-0.675-0.25-0.95c-0.16-0.282-0.387-0.499-0.682-0.653-0.288-0.16-0.618-0.24-0.989-0.24-0.365 0-0.694 0.077-0.989 0.23-0.288 0.154-0.515 0.371-0.682 0.653-0.16 0.282-0.24 0.602-0.24 0.96s0.080 0.678 0.24 0.96c0.166 0.282 0.394 0.502 0.682 0.662 0.294 0.154 0.624 0.23 0.989 0.23z"></path>
<path d="M62.366 18.762c-0.134 0.197-0.284 0.433-0.45 0.708s-0.342 0.583-0.53 0.923c-0.159 0.284-0.317 0.588-0.473 0.909-0.153 0.319-0.3 0.636-0.441 0.952-0.141 0.312-0.27 0.614-0.389 0.905-0.119 0.288-0.222 0.542-0.309 0.764-0.088 0.219-0.156 0.395-0.206 0.53-0.050 0.131-0.075 0.198-0.075 0.202-0.031 0.078-0.087 0.117-0.169 0.117-0.041 0-0.077-0.012-0.108-0.037-0.031-0.028-0.052-0.063-0.061-0.103 0-0.003-0.016-0.069-0.047-0.197-0.028-0.131-0.067-0.305-0.117-0.52-0.050-0.219-0.108-0.469-0.173-0.75-0.062-0.284-0.13-0.58-0.202-0.886-0.069-0.309-0.139-0.622-0.211-0.938s-0.139-0.616-0.202-0.9c-0.209 0.591-0.42 1.114-0.633 1.57-0.209 0.453-0.425 0.848-0.647 1.186-0.222 0.334-0.452 0.616-0.689 0.844-0.234 0.228-0.481 0.412-0.741 0.553-0.256 0.138-0.527 0.236-0.811 0.295-0.281 0.059-0.58 0.089-0.895 0.089-0.163 0-0.336-0.019-0.52-0.056-0.184-0.034-0.367-0.089-0.548-0.164s-0.355-0.169-0.52-0.281c-0.166-0.112-0.312-0.245-0.441-0.398-0.128-0.156-0.23-0.331-0.305-0.525-0.075-0.197-0.112-0.416-0.112-0.656 0-0.253 0.053-0.484 0.159-0.694 0.106-0.212 0.25-0.394 0.431-0.544 0.181-0.153 0.391-0.272 0.628-0.356 0.241-0.084 0.494-0.127 0.759-0.127 0.194 0 0.367 0.017 0.52 0.052 0.156 0.031 0.294 0.072 0.413 0.122s0.22 0.105 0.305 0.164 0.155 0.114 0.211 0.164c0.056 0.050 0.097 0.094 0.122 0.131 0.025 0.034 0.039 0.052 0.042 0.052 0.019 0.034 0.028 0.067 0.028 0.098 0 0.044-0.017 0.084-0.052 0.122-0.031 0.037-0.073 0.056-0.127 0.056-0.063 0-0.113-0.027-0.15-0.080-0.003-0.003-0.028-0.031-0.075-0.084-0.047-0.056-0.123-0.117-0.23-0.183s-0.244-0.125-0.412-0.178c-0.166-0.053-0.369-0.080-0.609-0.080-0.219 0-0.427 0.034-0.623 0.103-0.194 0.066-0.364 0.159-0.511 0.281-0.144 0.122-0.259 0.267-0.347 0.436-0.084 0.166-0.127 0.348-0.127 0.548 0 0.197 0.033 0.377 0.098 0.539s0.153 0.308 0.263 0.436c0.109 0.128 0.236 0.239 0.38 0.333s0.294 0.172 0.45 0.234c0.156 0.059 0.312 0.105 0.469 0.136 0.159 0.028 0.309 0.042 0.45 0.042 0.238 0 0.469-0.017 0.694-0.052 0.228-0.038 0.452-0.106 0.67-0.206 0.222-0.1 0.439-0.238 0.652-0.412s0.423-0.403 0.633-0.684c0.209-0.281 0.416-0.62 0.619-1.017 0.206-0.397 0.412-0.866 0.619-1.406 0.063-0.162 0.123-0.338 0.183-0.525s0.12-0.377 0.183-0.567c-0.053-0.275-0.092-0.509-0.117-0.703-0.022-0.194-0.033-0.355-0.033-0.483 0-0.137 0.011-0.247 0.033-0.328s0.050-0.142 0.084-0.183c0.034-0.044 0.072-0.070 0.113-0.080 0.041-0.013 0.080-0.019 0.117-0.019 0.031 0 0.066 0.006 0.103 0.019 0.041 0.012 0.077 0.041 0.108 0.084 0.034 0.041 0.063 0.102 0.084 0.183s0.033 0.191 0.033 0.328c0 0.15-0.014 0.323-0.042 0.52s-0.070 0.414-0.127 0.652c0.041 0.191 0.088 0.403 0.141 0.638s0.108 0.478 0.164 0.731c0.056 0.25 0.114 0.506 0.173 0.769s0.117 0.519 0.173 0.769 0.109 0.489 0.159 0.717c0.053 0.228 0.102 0.434 0.145 0.619 0.084-0.213 0.188-0.469 0.309-0.769 0.122-0.303 0.258-0.623 0.408-0.961 0.15-0.341 0.308-0.686 0.473-1.036 0.169-0.353 0.341-0.686 0.516-0.998 0.247-0.444 0.473-0.823 0.68-1.139 0.206-0.319 0.384-0.581 0.534-0.788s0.267-0.358 0.352-0.455c0.088-0.1 0.134-0.155 0.141-0.164 0.034-0.034 0.077-0.052 0.127-0.052 0.053 0 0.095 0.019 0.127 0.056 0.034 0.034 0.052 0.075 0.052 0.122 0 0.022-0.005 0.044-0.014 0.066 0 0.003-0.019 0.050-0.056 0.141-0.034 0.087-0.080 0.209-0.136 0.366-0.053 0.153-0.113 0.334-0.178 0.544-0.066 0.206-0.13 0.43-0.192 0.67-0.063 0.237-0.119 0.488-0.169 0.75-0.047 0.259-0.081 0.519-0.103 0.778-0.009 0.119-0.017 0.244-0.023 0.375-0.006 0.128-0.009 0.258-0.009 0.389 0 0.206 0.009 0.414 0.028 0.623s0.050 0.411 0.094 0.605c0.044 0.194 0.103 0.377 0.178 0.548 0.075 0.169 0.167 0.317 0.277 0.445s0.239 0.231 0.389 0.309c0.153 0.078 0.33 0.12 0.53 0.127 0.050 0.003 0.089 0.025 0.117 0.066 0.031 0.038 0.047 0.078 0.047 0.122s-0.017 0.083-0.052 0.117c-0.034 0.034-0.075 0.052-0.122 0.052-0.050 0-0.1-0.005-0.15-0.014-0.225-0.031-0.423-0.095-0.595-0.192-0.172-0.1-0.32-0.222-0.445-0.366-0.125-0.147-0.23-0.312-0.314-0.497-0.081-0.187-0.147-0.387-0.197-0.6s-0.086-0.433-0.108-0.661c-0.019-0.231-0.028-0.464-0.028-0.698 0-0.278 0.014-0.556 0.042-0.834s0.066-0.548 0.112-0.811c0.047-0.266 0.102-0.522 0.164-0.769s0.127-0.477 0.192-0.689zM67.761 23.492c-0.013 0.025-0.039 0.078-0.080 0.159-0.038 0.078-0.088 0.169-0.15 0.272-0.059 0.103-0.13 0.211-0.211 0.323s-0.172 0.216-0.272 0.309c-0.1 0.094-0.208 0.172-0.323 0.234-0.116 0.059-0.237 0.089-0.366 0.089-0.181 0-0.334-0.058-0.459-0.173-0.122-0.116-0.211-0.261-0.267-0.436-0.106 0.178-0.233 0.32-0.38 0.427-0.147 0.103-0.294 0.155-0.441 0.155-0.116 0-0.22-0.020-0.314-0.061-0.094-0.044-0.173-0.103-0.239-0.178-0.066-0.078-0.117-0.169-0.155-0.272-0.034-0.103-0.052-0.216-0.052-0.338 0-0.244 0.041-0.458 0.122-0.642 0.084-0.188 0.191-0.344 0.319-0.469s0.269-0.219 0.422-0.281c0.156-0.063 0.306-0.094 0.45-0.094 0.097 0 0.186 0.014 0.267 0.042 0.081 0.025 0.15 0.053 0.206 0.084 0.059 0.031 0.105 0.061 0.136 0.089 0.031 0.025 0.048 0.039 0.052 0.042 0.034 0.041 0.052 0.083 0.052 0.127 0 0.047-0.017 0.089-0.052 0.127-0.034 0.034-0.075 0.052-0.122 0.052-0.050 0-0.092-0.017-0.127-0.052-0.006-0.006-0.020-0.017-0.042-0.033-0.022-0.019-0.052-0.037-0.089-0.056s-0.083-0.034-0.136-0.047c-0.050-0.016-0.108-0.023-0.173-0.023-0.097 0-0.2 0.022-0.309 0.066s-0.209 0.112-0.3 0.206c-0.091 0.091-0.167 0.206-0.23 0.347-0.059 0.137-0.089 0.302-0.089 0.492 0 0.059 0.006 0.12 0.019 0.183 0.012 0.059 0.034 0.114 0.066 0.164s0.073 0.091 0.127 0.122c0.053 0.031 0.119 0.047 0.197 0.047 0.056 0 0.12-0.019 0.192-0.056 0.075-0.037 0.145-0.095 0.211-0.173 0.069-0.078 0.13-0.177 0.183-0.295 0.056-0.119 0.095-0.259 0.117-0.422 0.006-0.044 0.027-0.080 0.061-0.108 0.034-0.031 0.075-0.047 0.122-0.047 0.044 0 0.081 0.017 0.112 0.052 0.034 0.034 0.053 0.073 0.056 0.117 0.003 0.059 0.009 0.144 0.019 0.253 0.009 0.106 0.030 0.213 0.061 0.319 0.034 0.106 0.084 0.198 0.15 0.277s0.156 0.117 0.272 0.117c0.075 0 0.148-0.020 0.22-0.061 0.075-0.041 0.147-0.094 0.216-0.159 0.072-0.069 0.139-0.145 0.202-0.23 0.066-0.088 0.125-0.175 0.178-0.263s0.1-0.172 0.141-0.253c0.041-0.081 0.075-0.152 0.103-0.211 0.016-0.034 0.038-0.061 0.066-0.080 0.031-0.019 0.064-0.028 0.098-0.028 0.053 0 0.095 0.020 0.127 0.061 0.034 0.037 0.052 0.078 0.052 0.122 0 0.022-0.005 0.044-0.014 0.066zM69.134 25.259c0.587-0.766 0.995-1.402 1.223-1.908 0.016-0.034 0.036-0.059 0.061-0.075 0.028-0.019 0.059-0.028 0.094-0.028 0.053 0 0.097 0.019 0.131 0.056 0.034 0.034 0.052 0.075 0.052 0.122 0 0.022-0.005 0.044-0.014 0.066-0.138 0.313-0.333 0.661-0.586 1.045s-0.573 0.819-0.961 1.303c0 0.197 0.002 0.394 0.005 0.591s0.005 0.412 0.005 0.647c0 0.234-0.006 0.466-0.019 0.694-0.009 0.231-0.028 0.45-0.056 0.656-0.028 0.209-0.067 0.402-0.117 0.577-0.047 0.178-0.109 0.331-0.188 0.459-0.075 0.131-0.167 0.233-0.277 0.305-0.106 0.075-0.233 0.113-0.38 0.113-0.209 0-0.37-0.080-0.483-0.239s-0.169-0.386-0.169-0.68c0-0.156 0.014-0.327 0.042-0.511 0.031-0.181 0.075-0.369 0.131-0.563s0.123-0.391 0.202-0.591c0.081-0.197 0.17-0.389 0.267-0.577s0.202-0.367 0.314-0.539c0.116-0.172 0.238-0.328 0.366-0.469 0.003-0.219 0.005-0.436 0.005-0.652 0.003-0.216 0.008-0.414 0.014-0.595-0.094 0.119-0.206 0.212-0.338 0.281-0.128 0.069-0.256 0.103-0.384 0.103-0.109 0-0.209-0.020-0.3-0.061-0.088-0.044-0.163-0.103-0.225-0.178-0.062-0.078-0.111-0.169-0.145-0.272s-0.052-0.216-0.052-0.338c0-0.244 0.041-0.458 0.122-0.642 0.084-0.188 0.191-0.344 0.319-0.469s0.269-0.219 0.422-0.281c0.156-0.063 0.306-0.094 0.45-0.094 0.097 0 0.186 0.012 0.267 0.038s0.15 0.053 0.206 0.084c0.059 0.031 0.105 0.061 0.136 0.089s0.048 0.044 0.052 0.047c0.034 0.037 0.052 0.080 0.052 0.127s-0.017 0.089-0.052 0.127c-0.034 0.034-0.075 0.052-0.122 0.052-0.044 0-0.086-0.017-0.127-0.052-0.013-0.009-0.030-0.022-0.052-0.038-0.019-0.019-0.045-0.038-0.080-0.056-0.031-0.019-0.070-0.034-0.117-0.047-0.044-0.012-0.097-0.019-0.159-0.019-0.094 0-0.197 0.022-0.309 0.066-0.113 0.041-0.217 0.106-0.314 0.197s-0.178 0.208-0.244 0.352c-0.066 0.141-0.098 0.311-0.098 0.511 0 0.15 0.033 0.272 0.098 0.366 0.066 0.091 0.167 0.136 0.305 0.136 0.066 0 0.134-0.019 0.206-0.056 0.075-0.037 0.147-0.095 0.216-0.173s0.128-0.177 0.178-0.295c0.053-0.119 0.091-0.259 0.112-0.422 0.006-0.044 0.027-0.080 0.061-0.108 0.034-0.031 0.075-0.047 0.122-0.047 0.053 0 0.094 0.019 0.122 0.056 0.031 0.038 0.047 0.080 0.047 0.127 0 0.003-0.002 0.052-0.005 0.145-0.003 0.091-0.006 0.213-0.009 0.366s-0.008 0.331-0.014 0.534c-0.003 0.2-0.006 0.413-0.009 0.638zM68.778 26.286c-0.147 0.203-0.28 0.423-0.398 0.661-0.119 0.241-0.22 0.483-0.305 0.727s-0.15 0.48-0.197 0.708c-0.044 0.231-0.066 0.437-0.066 0.619 0 0.116 0.009 0.208 0.028 0.277 0.022 0.069 0.047 0.122 0.075 0.159 0.031 0.038 0.064 0.062 0.098 0.075 0.038 0.012 0.072 0.019 0.103 0.019 0.097 0 0.181-0.039 0.253-0.117s0.133-0.183 0.183-0.314c0.050-0.128 0.091-0.277 0.122-0.445s0.055-0.344 0.070-0.525c0.016-0.178 0.027-0.356 0.033-0.534s0.009-0.342 0.009-0.492c0-0.134 0-0.269 0-0.403s-0.003-0.272-0.009-0.412zM71.127 21.12c0 0.119-0.042 0.22-0.127 0.305-0.081 0.081-0.181 0.122-0.3 0.122s-0.22-0.041-0.305-0.122c-0.081-0.084-0.122-0.186-0.122-0.305 0-0.059 0.011-0.114 0.033-0.164 0.022-0.053 0.052-0.098 0.089-0.136 0.041-0.041 0.086-0.072 0.136-0.094 0.053-0.022 0.109-0.033 0.169-0.033s0.114 0.011 0.164 0.033c0.053 0.022 0.098 0.053 0.136 0.094 0.041 0.038 0.072 0.083 0.094 0.136 0.022 0.050 0.033 0.105 0.033 0.164zM70.367 23.867c0-0.45 0.028-0.898 0.084-1.345 0.006-0.044 0.025-0.081 0.056-0.112 0.034-0.034 0.078-0.052 0.131-0.052 0.047 0 0.086 0.019 0.117 0.056 0.031 0.034 0.047 0.075 0.047 0.122 0 0.019-0.005 0.075-0.014 0.169-0.006 0.094-0.016 0.206-0.028 0.337-0.009 0.128-0.019 0.266-0.028 0.413-0.006 0.144-0.009 0.277-0.009 0.398 0 0.166 0.016 0.3 0.047 0.403 0.034 0.1 0.077 0.178 0.127 0.234 0.053 0.056 0.108 0.094 0.164 0.112 0.059 0.019 0.116 0.028 0.169 0.028 0.088 0 0.178-0.031 0.272-0.094s0.189-0.15 0.286-0.262c0.1-0.113 0.2-0.247 0.3-0.403 0.1-0.159 0.198-0.336 0.295-0.53 0.016-0.031 0.038-0.055 0.066-0.070 0.028-0.019 0.059-0.028 0.094-0.028 0.050 0 0.091 0.019 0.122 0.056 0.034 0.038 0.052 0.078 0.052 0.122 0 0.031-0.006 0.058-0.019 0.080-0.038 0.072-0.084 0.159-0.141 0.262s-0.12 0.209-0.192 0.319c-0.072 0.109-0.152 0.219-0.239 0.328-0.084 0.106-0.175 0.203-0.272 0.291-0.097 0.084-0.198 0.153-0.305 0.206s-0.214 0.080-0.323 0.080c-0.141 0-0.264-0.030-0.37-0.089s-0.197-0.139-0.272-0.239c-0.072-0.1-0.127-0.217-0.164-0.352-0.034-0.138-0.052-0.284-0.052-0.441zM70.864 21.12c0-0.044-0.017-0.081-0.052-0.112-0.031-0.034-0.069-0.052-0.112-0.052s-0.081 0.017-0.112 0.052c-0.031 0.031-0.047 0.069-0.047 0.112s0.016 0.081 0.047 0.112c0.031 0.031 0.069 0.047 0.112 0.047s0.081-0.016 0.112-0.047c0.034-0.031 0.052-0.069 0.052-0.112zM75.444 23.502c-0.019 0.034-0.052 0.097-0.098 0.187-0.044 0.091-0.105 0.194-0.183 0.309-0.075 0.113-0.166 0.23-0.272 0.352s-0.228 0.234-0.366 0.338c-0.137 0.1-0.292 0.183-0.464 0.248-0.169 0.066-0.353 0.098-0.553 0.098-0.178 0-0.336-0.033-0.473-0.098-0.138-0.062-0.255-0.152-0.352-0.267-0.097-0.119-0.17-0.258-0.22-0.417s-0.075-0.336-0.075-0.53c0-0.187 0.027-0.362 0.080-0.525 0.053-0.166 0.125-0.309 0.216-0.431 0.094-0.122 0.202-0.217 0.323-0.286 0.122-0.072 0.252-0.108 0.389-0.108 0.103 0 0.197 0.019 0.281 0.056 0.084 0.034 0.155 0.081 0.211 0.141 0.059 0.059 0.105 0.125 0.136 0.197 0.034 0.072 0.052 0.144 0.052 0.216 0 0.069-0.009 0.133-0.028 0.192-0.016 0.059-0.038 0.112-0.066 0.159-0.025 0.044-0.055 0.080-0.089 0.108-0.034 0.025-0.069 0.038-0.103 0.038-0.053 0-0.097-0.017-0.131-0.052-0.031-0.034-0.047-0.077-0.047-0.127 0-0.025 0.005-0.047 0.014-0.066 0.013-0.019 0.025-0.038 0.038-0.056 0.016-0.022 0.028-0.047 0.038-0.075 0.012-0.031 0.019-0.070 0.019-0.117 0-0.066-0.031-0.125-0.094-0.178-0.059-0.053-0.136-0.080-0.23-0.080-0.087 0-0.172 0.027-0.253 0.080-0.078 0.053-0.147 0.125-0.206 0.216-0.059 0.088-0.108 0.192-0.145 0.314-0.034 0.119-0.052 0.245-0.052 0.38 0 0.128 0.016 0.25 0.047 0.366s0.078 0.219 0.141 0.309c0.062 0.088 0.141 0.158 0.234 0.211 0.097 0.053 0.211 0.080 0.342 0.080 0.169 0 0.325-0.030 0.469-0.089 0.144-0.062 0.275-0.141 0.394-0.234s0.223-0.195 0.314-0.305c0.091-0.113 0.167-0.217 0.23-0.314 0.066-0.1 0.116-0.186 0.15-0.258 0.038-0.075 0.059-0.122 0.066-0.141 0.013-0.031 0.033-0.055 0.061-0.070 0.031-0.019 0.064-0.028 0.098-0.028 0.053 0 0.095 0.019 0.127 0.056 0.034 0.038 0.052 0.080 0.052 0.127 0 0.019-0.006 0.044-0.019 0.075z"></path>
</symbol>
<symbol id="icon-witch-typical-halloween-character-svgrepo-com" viewBox="0 0 32 32">
<path d="M21.399 20.246c-0.184-0.705-0.731-0.957-1.181-0.957v0 0c-0.007 0-0.014 0-0.021 0.001-0.011-0-0.022-0.001-0.032-0.001v0h-0c-0.202 0-0.375 0.045-0.528 0.085-0.183 0.048-0.434 0.114-0.666 0.261-0.478 0.304-0.687 0.831-0.545 1.373 0.174 0.664 0.774 1.127 1.46 1.127 0.007 0 0.014-0.001 0.021-0.001 0.011 0 0.021 0.001 0.032 0.001 0.129 0 0.257-0.017 0.382-0.049 0.39-0.102 0.717-0.35 0.921-0.698s0.26-0.754 0.158-1.144zM19.431 20.761c-0.073-0.281 0.228-0.361 0.509-0.435 0.099-0.026 0.182-0.047 0.251-0.052 0.098 0.008 0.164 0.065 0.205 0.221 0.073 0.281-0.095 0.568-0.376 0.642-0.034 0.009-0.069 0.014-0.103 0.016-0.224-0.010-0.426-0.163-0.485-0.392z"></path>
<path d="M13.126 19.636c-0.232-0.148-0.483-0.213-0.666-0.261-0.153-0.040-0.326-0.085-0.528-0.085-0.011 0-0.022 0-0.032 0.001-0.007-0-0.014-0.001-0.021-0.001-0.45 0-0.996 0.251-1.181 0.957-0.102 0.39-0.046 0.796 0.158 1.144s0.531 0.596 0.921 0.698c0.125 0.033 0.253 0.049 0.382 0.049 0.011 0 0.021-0 0.032-0.001 0.007 0 0.014 0.001 0.021 0.001 0.686 0 1.286-0.464 1.46-1.127 0.142-0.543-0.067-1.069-0.545-1.373zM12.078 21.137c-0.281-0.073-0.449-0.361-0.376-0.642 0.041-0.156 0.106-0.213 0.205-0.221 0.069 0.005 0.152 0.026 0.251 0.052 0.281 0.073 0.582 0.154 0.509 0.435-0.060 0.229-0.261 0.382-0.485 0.392-0.034-0.002-0.069-0.007-0.103-0.016z"></path>
<path d="M25.659 26.336c-0.209-0.526-0.269-1.032-0.277-1.402 0.506 0.116 1.111 0.134 1.809 0.054 0.746-0.086 1.328-0.255 1.353-0.263l1.143-0.336-1.048-0.568c-0.612-0.332-1.631-1.27-3.007-3.858-0.559-1.052-0.999-2.047-1.233-2.604 0.154-0.093 0.295-0.188 0.425-0.287 0.31-0.236 0.555-0.493 0.727-0.764 0.209-0.33 0.316-0.68 0.316-1.040 0-1.504-1.754-2.384-3.225-2.858-0.376-0.121-0.785-0.232-1.216-0.332-0.009-0.227-0.014-0.715-0.017-1.032-0.003-0.363-0.006-0.589-0.011-0.657-0.041-0.558-0.14-1.118-0.294-1.663-0.316-1.117-0.857-2.165-1.608-3.115-1.009-1.275-2.404-2.387-4.146-3.306-0.84-0.443-2.223-1.078-4.042-1.59-1.089-0.307-1.828-0.426-1.859-0.431l-1.796-0.285 2.995 5.032v7.041c-0.442 0.101-0.86 0.214-1.245 0.338-0.918 0.295-1.652 0.65-2.182 1.053-0.31 0.236-0.555 0.493-0.727 0.764-0.21 0.329-0.316 0.679-0.316 1.040 0 0.895 0.621 1.569 1.434 2.068-0.232 0.553-0.676 1.561-1.243 2.628-1.376 2.587-2.395 3.526-3.007 3.858l-1.048 0.567 1.143 0.336c0.024 0.007 0.606 0.177 1.353 0.263 0.698 0.080 1.304 0.062 1.809-0.054-0.008 0.361-0.065 0.852-0.262 1.363-0.533 1.385-1.801 2.277-3.77 2.651l-1.867 0.354 1.805 0.595c0.051 0.017 1.252 0.407 2.86 0.407 0.015 0 0.030-0 0.045-0 1.935-0.009 3.629-0.59 4.94-1.688 0.224 0.515 0.43 1.221 0.239 1.721l-0.609 1.593 1.363-1.024c0.022-0.016 0.535-0.404 1.040-0.985 0.175-0.201 0.327-0.399 0.457-0.595 0.25 0.884 0.656 1.564 1.213 2.028 0.675 0.562 1.387 0.646 1.751 0.646 0.075 0 0.142-0.003 0.199-0.008 0.057 0.005 0.124 0.008 0.199 0.008 0.364 0 1.076-0.084 1.751-0.646 0.547-0.456 0.949-1.12 1.2-1.982 0.123 0.181 0.265 0.365 0.426 0.55 0.505 0.58 1.019 0.969 1.040 0.985l1.363 1.024-0.609-1.593c-0.191-0.5 0.015-1.206 0.239-1.721 1.311 1.098 3.005 1.68 4.94 1.688 0.015 0 0.030 0 0.045 0 1.608 0 2.809-0.39 2.86-0.407l1.805-0.595-1.867-0.354c-1.95-0.37-3.214-1.249-3.756-2.613zM19.198 26.215c-0.593-0.318-1.226-0.537-1.887-0.656l0.602-1.881 1.478-0.594-1.703-1.988-0.747 0.64 0.811 0.947-0.636 0.255-0.348 1.088c-0.232-0.233-0.708-0.223-0.824 0.196-0.112 0.404 0.257 0.654 0.569 0.6l-0.51 1.592-1.075-3.475-0.638-0.256 0.811-0.947-0.747-0.64-1.703 1.988 1.476 0.593 0.593 1.916c-0.865 0.168-1.537 0.447-1.882 0.611-1.010-1.699-2.561-2.8-2.916-3.447-0.488-0.891 0.632-4.292 0.632-4.292s2.056 0.576 5.467 0.602c3.411-0.026 5.467-0.602 5.467-0.602s1.12 3.401 0.632 4.292c-0.355 0.648-1.913 1.753-2.923 3.458zM11.316 14.704c0.307 0.252 0.722 0.469 1.235 0.647 0.946 0.328 2.186 0.508 3.492 0.508s2.547-0.181 3.492-0.508c0.513-0.178 0.928-0.395 1.235-0.647 0.553-0.453 0.669-0.942 0.669-1.272v-0.27c2.090 0.516 3.378 1.315 3.378 2.107 0 0.671-0.91 1.348-2.497 1.859-1.68 0.541-3.916 0.838-6.298 0.838s-4.619-0.298-6.298-0.838c-1.587-0.511-2.497-1.188-2.497-1.859 0-0.799 1.304-1.602 3.421-2.118v0.281c-0 0.33 0.116 0.819 0.669 1.272zM11.696 11.683c0.036 0.009 0.077 0.018 0.122 0.029 0.421 0.101 1.182 0.283 2.014 0.383l0.005 2.513c-1.272-0.252-2.141-0.725-2.141-1.177l-0-1.749zM14.886 12.906v-0.762h2.316v2.506h-2.316v-0.696h1.333v-1.049h-1.333zM20.392 13.431c0 0.452-0.869 0.924-2.141 1.177l-0.001-2.521c0.699-0.084 1.351-0.232 1.794-0.332 0.14-0.032 0.262-0.059 0.348-0.076v1.752h0zM16.044 11.068c-2.119 0-4.157-0.419-4.348-0.459v-5.866l-1.989-3.341c0.867 0.181 2.934 0.69 5.007 1.757 1.58 0.813 2.854 1.787 3.787 2.895 1.121 1.332 1.75 2.865 1.869 4.559-0.29 0.060-2.27 0.454-4.326 0.454zM11.615 29.33c-0.042-0.238-0.11-0.488-0.204-0.749-0.208-0.577-0.472-1.005-0.483-1.023l-0.33-0.531-0.438 0.446c-1.189 1.211-2.772 1.833-4.705 1.849-0.255 0.002-0.501-0.007-0.732-0.024 0.422-0.201 0.802-0.437 1.136-0.709 0.647-0.525 1.123-1.178 1.416-1.939 0.495-1.287 0.287-2.439 0.278-2.487l-0.123-0.655-0.589 0.31c-0.541 0.285-1.387 0.266-2.087 0.171 0.795-0.76 1.628-1.956 2.488-3.574 0.565-1.064 1.003-2.051 1.248-2.631 0.305 0.131 0.615 0.244 0.913 0.34 0.068 0.022 0.138 0.044 0.208 0.065-0.056 0.173-0.308 0.969-0.513 1.867-0.462 2.027-0.262 2.759-0.036 3.171 0.207 0.378 0.574 0.745 1.039 1.209 0.796 0.795 1.833 1.832 2.341 3.189l-0.003 0c0.036 0.568-0.378 1.202-0.823 1.703zM16.221 31.017c-0.124 0-0.199-0.015-0.199-0.015s-0.075 0.015-0.199 0.015c-0.496 0-1.774-0.239-2.165-2.629-0.076-0.465-0.207-0.899-0.376-1.306 0.301-0.141 0.903-0.389 1.669-0.532 0.021-0.004 0.042-0.007 0.062-0.011l0.975 3.151 1.020-3.188c0.613 0.095 1.196 0.293 1.747 0.593-0.063 0.153-0.121 0.311-0.173 0.472l-0.003-0c-0 0.003-0 0.006-0 0.010-0.083 0.26-0.149 0.531-0.195 0.812-0.391 2.39-1.669 2.629-2.165 2.629zM26.576 29.322c-1.946-0.009-3.539-0.631-4.735-1.849l-0.438-0.446-0.33 0.531c-0.011 0.018-0.276 0.446-0.483 1.023-0.094 0.262-0.163 0.512-0.205 0.751-0.416-0.467-0.803-1.050-0.824-1.59 0.491-1.413 1.565-2.486 2.383-3.304 0.464-0.464 0.831-0.83 1.038-1.209 0.226-0.412 0.425-1.144-0.036-3.171-0.205-0.899-0.457-1.695-0.513-1.867 0.070-0.021 0.139-0.043 0.208-0.065 0.314-0.101 0.606-0.209 0.876-0.324 0.246 0.582 0.682 1.56 1.241 2.614 0.859 1.617 1.693 2.813 2.488 3.574-0.7 0.095-1.546 0.113-2.087-0.171l-0.589-0.31-0.123 0.655c-0.009 0.048-0.217 1.201 0.278 2.487 0.293 0.761 0.769 1.414 1.416 1.939 0.334 0.271 0.714 0.508 1.137 0.709-0.222 0.016-0.457 0.025-0.703 0.024z"></path>
</symbol>
<symbol id="icon-Vector-Dr" viewBox="0 0 32 32">
<path d="M18.887 0.853c-0.565 0.683-0.81 1.377-0.813 2.295l-0.003 0.415-0.075-0.145c-0.247-0.48-0.348-1.115-0.262-1.667 0.017-0.117 0.030-0.215 0.027-0.22-0.020-0.022-0.315 0.463-0.385 0.633-0.157 0.38-0.205 0.623-0.22 1.147l-0.015 0.475-0.050-0.063c-0.082-0.103-0.19-0.335-0.258-0.565-0.058-0.19-0.067-0.27-0.070-0.565-0.003-0.39-0.003-0.39-0.165-0.055-0.18 0.373-0.288 0.897-0.273 1.347 0.003 0.107-0.005 0.178-0.020 0.183-0.040 0.015-0.457-0.15-0.713-0.28-0.85-0.428-1.357-1.067-1.505-1.897-0.053-0.282-0.068-0.615-0.045-0.86s0.005-0.238-0.14 0.058c-0.44 0.885-0.307 1.82 0.402 2.885 0.102 0.153 0.18 0.283 0.17 0.288-0.008 0.005-0.137 0-0.29-0.010-1.225-0.093-2.12-0.377-2.697-0.86l-0.125-0.103 0.105 0.2c0.207 0.395 0.582 0.828 0.922 1.057 0.197 0.133 0.428 0.247 0.688 0.343l0.22 0.077-0.26 0.205c-0.735 0.585-1.307 1.385-1.588 2.228-0.16 0.482-0.19 0.688-0.188 1.253 0.002 0.47 0.008 0.533 0.068 0.755 0.17 0.637 0.47 1.148 0.955 1.633 0.553 0.55 1.242 0.943 2.088 1.19 0.41 0.12 0.557 0.175 0.787 0.29 0.582 0.293 0.872 0.732 0.875 1.332 0 0.387-0.127 0.637-0.43 0.842-0.47 0.315-1.010 0.217-1.235-0.225-0.14-0.273-0.053-0.637 0.182-0.758 0.107-0.055 0.297-0.053 0.4 0.008 0.195 0.115 0.26 0.363 0.125 0.49-0.105 0.1-0.207 0.11-0.338 0.035-0.060-0.035-0.13-0.102-0.155-0.152-0.027-0.050-0.057-0.090-0.068-0.090-0.027 0-0.053 0.17-0.037 0.265 0.020 0.113 0.117 0.242 0.25 0.33 0.088 0.057 0.127 0.068 0.277 0.068 0.143-0.002 0.203-0.015 0.307-0.070 0.357-0.185 0.515-0.475 0.455-0.848-0.072-0.453-0.385-0.783-0.887-0.935-0.238-0.072-0.697-0.063-1.055 0.025-0.348 0.082-0.71 0.135-1.090 0.155l-0.287 0.018-0.143-0.107c-0.213-0.16-0.515-0.475-0.645-0.672-0.24-0.363-0.325-0.635-0.325-1.070-0.002-0.295-0.002-0.303-0.045-0.238-0.057 0.095-0.188 0.42-0.238 0.61-0.033 0.115-0.045 0.25-0.043 0.508 0 0.412 0.045 0.607 0.223 0.982 0.082 0.172 0.105 0.245 0.082 0.258-0.060 0.037-0.365 0.082-0.563 0.080-0.182 0-0.227-0.010-0.375-0.082-0.238-0.117-0.495-0.377-0.615-0.625-0.13-0.265-0.172-0.443-0.185-0.79-0.025-0.605 0.148-1.203 0.5-1.723 0.133-0.195 0.425-0.485 0.575-0.575 0.065-0.037 0.115-0.072 0.113-0.078-0.018-0.015-0.3 0.068-0.485 0.14-0.615 0.245-1.063 0.68-1.41 1.375-0.057 0.117-0.11 0.217-0.115 0.223-0.025 0.025-0.035-0.033-0.063-0.352-0.165-1.918 1.090-4.15 3.232-5.747 0.165-0.122 0.29-0.223 0.277-0.223-0.047 0-0.543 0.128-0.807 0.21-2.465 0.748-4.763 2.47-6.272 4.702-0.755 1.115-1.298 2.308-1.627 3.575-0.138 0.523-0.21 0.885-0.3 1.505-0.042 0.297-0.033 2.887 0.013 3.235 0.115 0.875 0.313 1.75 0.603 2.668 0.063 0.198 0.118 0.355 0.123 0.35 0.007-0.005-0.018-0.168-0.050-0.358-0.083-0.457-0.175-1.148-0.23-1.688-0.063-0.637-0.063-2.323 0-2.9 0.228-2.063 0.82-3.738 1.868-5.27 0.32-0.473 0.982-1.28 1.018-1.245 0.005 0.005-0.022 0.078-0.065 0.16-0.735 1.455-0.87 3.213-0.388 5.030 0.077 0.295 0.287 0.93 0.303 0.918 0.005-0.008-0.003-0.088-0.018-0.182-0.313-1.96-0.090-3.65 0.705-5.31 0.082-0.172 0.155-0.3 0.162-0.283 0.005 0.018-0.008 0.152-0.027 0.303-0.317 2.293 0.298 3.918 1.965 5.175 0.075 0.057 0.145 0.105 0.152 0.105 0.010 0-0.057-0.092-0.15-0.207-0.185-0.227-0.342-0.465-0.44-0.655-0.075-0.148-0.18-0.482-0.158-0.505 0.008-0.008 0.057 0.025 0.11 0.072 0.143 0.127 0.383 0.287 0.603 0.395 0.675 0.34 1.425 0.383 2.265 0.135 0.125-0.035 0.248-0.072 0.273-0.080 0.045-0.012 0.045-0.010 0.010 0.040-0.068 0.098-0.377 0.36-0.59 0.498-0.217 0.143-0.555 0.31-0.83 0.408-0.293 0.105-0.273 0.115 0.127 0.072 0.563-0.057 1.145-0.242 1.918-0.61 0.185-0.090 0.342-0.162 0.35-0.162 0.020 0-0.078 0.135-0.203 0.283-0.158 0.185-0.568 0.512-0.877 0.703-0.133 0.082-0.235 0.152-0.23 0.157 0.018 0.020 0.635-0.125 0.885-0.207 0.148-0.050 0.418-0.162 0.6-0.252l0.332-0.165 0.092 0.088c0.363 0.34 0.76 0.515 1.23 0.538 0.682 0.032 1.39-0.297 2.26-1.053 0.078-0.068 0.15-0.115 0.16-0.105s0.017 0.195 0.017 0.41c0 0.33-0.010 0.425-0.058 0.605-0.058 0.21-0.235 0.608-0.37 0.825l-0.070 0.113 0.11-0.087c0.21-0.163 0.637-0.615 0.8-0.845 0.378-0.535 0.575-1.098 0.575-1.65 0-0.098 0.010-0.18 0.023-0.18 0.043 0 0.233 0.26 0.313 0.425 0.067 0.145 0.078 0.188 0.078 0.387 0 0.255-0.040 0.4-0.175 0.623-0.045 0.078-0.075 0.14-0.065 0.14s0.093-0.063 0.185-0.137c0.462-0.383 0.665-0.852 0.637-1.485l-0.015-0.29 0.087 0.1c0.128 0.148 0.25 0.38 0.297 0.563 0.045 0.182 0.035 0.393-0.030 0.585-0.023 0.065-0.035 0.123-0.030 0.13 0.025 0.023 0.32-0.283 0.405-0.42 0.050-0.080 0.115-0.223 0.148-0.318 0.030-0.098 0.063-0.178 0.073-0.178s0.047 0.092 0.085 0.205c0.087 0.277 0.11 0.682 0.050 0.947-0.070 0.32-0.28 0.67-0.55 0.918-0.063 0.058-0.115 0.113-0.115 0.117 0 0.027 0.18 0.010 0.363-0.038 0.108-0.027 0.203-0.045 0.207-0.038 0.020 0.020-0.19 0.21-0.332 0.302-0.225 0.142-0.413 0.192-0.688 0.18-0.205-0.010-0.262-0.023-0.413-0.095-0.195-0.093-0.402-0.282-0.485-0.445-0.030-0.058-0.060-0.105-0.065-0.105-0.020 0 0.012 0.192 0.055 0.35 0.148 0.545 0.573 0.927 1.395 1.262 0.098 0.040 0.185 0.080 0.198 0.090 0.010 0.010-0.032 0.075-0.095 0.142-0.155 0.168-0.317 0.215-0.715 0.218-0.235 0-0.32-0.010-0.462-0.058-0.245-0.082-0.418-0.188-0.615-0.372-0.267-0.253-0.407-0.505-0.497-0.89l-0.040-0.18-0.052 0.2c-0.093 0.345-0.098 0.595-0.015 0.975 0.015 0.075 0.015 0.073-0.12-0.045-0.578-0.51-0.977-0.793-1.473-1.035-0.785-0.385-1.473-0.552-2.367-0.575-0.54-0.015-0.855 0.008-1.383 0.1-0.465 0.078-1.352 0.078-1.813-0.005-0.617-0.11-1.075-0.297-1.355-0.563-0.152-0.14-0.158-0.143-0.158-0.078 0 0.115 0.098 0.552 0.165 0.742 0.088 0.242 0.205 0.475 0.348 0.683 0.098 0.14 0.113 0.177 0.082 0.198-0.018 0.015-0.152 0.122-0.295 0.238-0.582 0.47-1.34 0.9-1.902 1.087-0.345 0.113-0.697 0.185-1.022 0.205l-0.258 0.017 0.072 0.060c0.25 0.205 0.673 0.38 1.060 0.435 0.202 0.027 0.79 0.017 0.998-0.020l0.085-0.015-0.015 0.1c-0.025 0.157-0.14 0.477-0.247 0.695-0.282 0.565-0.718 1.047-1.343 1.482-0.213 0.148-0.195 0.16 0.138 0.093 0.378-0.080 0.895-0.29 1.218-0.495 0.080-0.052 0.15-0.093 0.155-0.093 0.030 0 0.008 0.255-0.035 0.438-0.067 0.277-0.165 0.535-0.3 0.8-0.063 0.122-0.117 0.235-0.122 0.245-0.018 0.038 0.232-0.128 0.37-0.247 0.075-0.065 0.197-0.185 0.27-0.27 0.072-0.082 0.14-0.155 0.15-0.16 0.010-0.003 0.072 0.105 0.14 0.238 0.59 1.195 1.578 1.98 2.925 2.33 0.113 0.030 0.225 0.078 0.26 0.108 0.148 0.135 0.197 0.42 0.115 0.66-0.020 0.063-0.035 0.12-0.030 0.125s0.088-0.038 0.182-0.095c0.252-0.15 0.485-0.39 0.598-0.622l0.092-0.19 0.305-0.030c0.932-0.093 1.96-0.36 2.95-0.765 0.037-0.015 0.043 0 0.043 0.128 0.002 0.345 0.137 0.698 0.34 0.885 0.060 0.055 0.12 0.1 0.135 0.1 0.012 0 0.025-0.052 0.025-0.115 0-0.407 0.262-0.852 0.593-1.003 0.188-0.087 0.508-0.108 0.712-0.047 0.308 0.087 0.6 0.365 0.723 0.685 0.078 0.198 0.093 0.545 0.035 0.745-0.087 0.302-0.28 0.573-0.575 0.805l-0.1 0.078 0.238-0.063c0.13-0.032 0.367-0.125 0.525-0.2 0.255-0.128 0.308-0.165 0.512-0.37 0.175-0.175 0.253-0.275 0.335-0.438 0.075-0.145 0.115-0.2 0.128-0.175 0.012 0.020 0.045 0.148 0.075 0.285 0.078 0.345 0.080 0.837 0.005 1.13-0.122 0.48-0.332 0.84-0.703 1.207-0.352 0.35-0.915 0.71-1.385 0.887-0.285 0.105-0.76 0.078-0.808-0.050-0.010-0.023 0.030-0.113 0.087-0.212 0.165-0.275 0.343-0.645 0.41-0.85 0.075-0.22 0.125-0.538 0.113-0.71l-0.008-0.125-0.11 0.15c-0.267 0.355-0.547 0.622-0.89 0.84-0.19 0.125-0.42 0.245-0.463 0.245-0.015 0 0-0.052 0.035-0.12 0.082-0.163 0.2-0.505 0.255-0.742 0.080-0.337 0.055-1.11-0.037-1.282-0.010-0.017-0.053 0.052-0.1 0.175-0.268 0.665-0.68 1.195-1.18 1.52-0.275 0.175-0.515 0.282-0.845 0.367-0.33 0.087-0.9 0.108-1.287 0.045-0.818-0.128-1.652-0.5-2.44-1.090l-0.113-0.085 0.072 0.125c1.178 2.058 3.595 3.645 5.89 3.863 0.172 0.017 0.35 0.025 0.395 0.020 0.082-0.008 0.082-0.008-0.137-0.17-0.28-0.205-0.57-0.483-0.773-0.738-0.172-0.212-0.195-0.27-0.102-0.253 0.885 0.19 1.957 0.2 2.703 0.027 0.922-0.215 1.727-0.703 2.32-1.413 0.235-0.28 0.538-0.727 0.695-1.030l0.11-0.212 0.302-0.015c0.495-0.023 0.795-0.135 1.078-0.398 0.087-0.082 0.16-0.16 0.16-0.17s-0.12-0.025-0.267-0.032c-0.587-0.027-0.98-0.255-1.18-0.677-0.128-0.267-0.13-0.26 0.172-0.363 0.145-0.050 0.317-0.122 0.385-0.163 0.293-0.172 0.468-0.442 0.485-0.75l0.010-0.17-0.102 0.113c-0.215 0.233-0.55 0.282-0.852 0.13-0.175-0.087-0.198-0.108-0.547-0.438-0.16-0.15-0.367-0.337-0.465-0.413-1.36-1.080-2.89-1.317-5.063-0.79-0.998 0.242-1.7 0.302-2.455 0.215-1.3-0.152-2.172-0.668-2.568-1.518-0.092-0.195-0.197-0.558-0.172-0.582 0.005-0.008 0.105 0.050 0.217 0.122 0.48 0.317 0.897 0.465 1.353 0.483l0.287 0.010-0.125-0.108c-0.295-0.25-0.485-0.497-0.592-0.767-0.047-0.12-0.055-0.188-0.057-0.465 0-0.302 0.005-0.337 0.072-0.5 0.28-0.677 0.908-1.163 1.565-1.205 0.603-0.040 1.125 0.325 1.19 0.832 0.047 0.398-0.225 0.86-0.578 0.97-0.518 0.165-1.065-0.177-1.273-0.795-0.070-0.207-0.002 0.413 0.075 0.675 0.127 0.448 0.35 0.74 0.68 0.902 0.18 0.090 0.205 0.095 0.467 0.105 0.227 0.005 0.315-0.003 0.475-0.045 0.377-0.105 0.873-0.415 1.2-0.75 0.068-0.070 0.133-0.128 0.145-0.128 0.035 0-0.002 0.148-0.080 0.313-0.072 0.157-0.23 0.367-0.422 0.567-0.135 0.14-0.123 0.145 0.182 0.073 0.42-0.102 0.73-0.295 0.977-0.613l0.075-0.095 0.21 0.105c0.503 0.253 1.067 0.427 1.617 0.5 0.367 0.050 1.122 0.020 1.495-0.060 0.317-0.067 0.64-0.165 0.965-0.295 0.11-0.043 0.205-0.070 0.212-0.063 0.025 0.025-0.223 0.475-0.37 0.668-0.188 0.25-0.578 0.622-0.863 0.825-0.128 0.087-0.227 0.165-0.22 0.17 0.005 0.005 0.113-0.032 0.242-0.082 0.652-0.26 1.177-0.598 1.668-1.073 0.227-0.22 0.258-0.242 0.242-0.177-0.047 0.21-0.392 0.698-0.777 1.105-0.12 0.128-0.207 0.233-0.195 0.233 0.032 0 0.785-0.433 1-0.578 0.73-0.488 1.52-1.17 2.23-1.93 0.115-0.122 0.212-0.218 0.218-0.21 0.005 0.005-0.003 0.075-0.017 0.155-0.067 0.37-0.293 0.817-0.61 1.227-0.093 0.115-0.157 0.21-0.15 0.21 0.040 0 0.38-0.215 0.543-0.345 0.3-0.238 0.538-0.54 0.68-0.865 0.047-0.108 0.075-0.142 0.102-0.13 0.305 0.117 0.66 0.12 0.88 0.008 0.282-0.145 0.442-0.402 0.442-0.71 0-0.17-0.027-0.262-0.055-0.185-0.023 0.065-0.18 0.223-0.255 0.253-0.063 0.025-0.087 0.023-0.183-0.023-0.235-0.115-0.402-0.352-0.402-0.578 0-0.25 0.207-0.515 0.538-0.683l0.177-0.093 0.113 0.1c0.063 0.055 0.203 0.15 0.31 0.212 0.22 0.128 0.293 0.215 0.385 0.468l0.058 0.157 0.030-0.075c0.12-0.308 0.16-0.79 0.087-1.063-0.055-0.212-0.185-0.455-0.33-0.622l-0.115-0.133-0.122 0.015c-0.337 0.045-0.785 0.285-1.188 0.637-0.113 0.098-0.212 0.177-0.22 0.177-0.027 0 0.108-0.223 0.25-0.413 0.685-0.922 1.755-1.217 2.363-0.648 0.105 0.098 0.25 0.337 0.25 0.41 0 0.015 0.012 0.020 0.027 0.010 0.047-0.027 0.015-0.523-0.047-0.69-0.102-0.285-0.323-0.518-0.587-0.615-0.073-0.027-0.253-0.068-0.4-0.090-0.29-0.043-0.415-0.092-0.593-0.238-0.215-0.172-0.19-0.17-0.235-0.023-0.075 0.26-0.3 0.438-0.468 0.37-0.207-0.088-0.26-0.318-0.122-0.535 0.043-0.065 0.125-0.17 0.183-0.235 0.060-0.065 0.13-0.175 0.152-0.242 0.113-0.307 0.332-0.605 0.813-1.1 0.172-0.178 0.297-0.31 0.277-0.297-0.253 0.178-1.143 0.905-1.53 1.252-0.887 0.797-1.277 1.453-1.17 1.968 0.015 0.078 0.032 0.14 0.035 0.14 0.005 0 0.073-0.040 0.152-0.087 0.238-0.142 0.47-0.148 0.62-0.012 0.070 0.063 0.080 0.085 0.078 0.192-0.005 0.267-0.185 0.433-0.593 0.538-0.195 0.052-0.215 0.063-0.2 0.108 0.010 0.027 0.015 0.15 0.015 0.275-0.005 0.247-0.052 0.47-0.185 0.825-0.095 0.25-0.065 0.225-0.485 0.4-0.15 0.063-0.398 0.183-0.55 0.265-0.15 0.080-0.28 0.145-0.293 0.142-0.010-0.005 0.050-0.11 0.133-0.233 0.082-0.125 0.233-0.395 0.335-0.6 0.76-1.535 0.835-3.28 0.198-4.527-0.392-0.768-1.148-1.425-2.113-1.832-0.85-0.36-1.6-0.535-3.090-0.715-0.962-0.117-1.588-0.287-2.24-0.613-0.535-0.268-1.050-0.68-1.34-1.070-0.617-0.84-0.662-1.82-0.117-2.64 0.908-1.362 3.222-1.268 5.075 0.21 0.383 0.303 0.665 0.622 0.665 0.75 0 0.015-0.050-0.008-0.113-0.050-0.225-0.155-0.422-0.228-0.745-0.275-0.558-0.085-0.867-0.218-1.148-0.492-0.078-0.077-0.175-0.202-0.218-0.28-0.070-0.128-0.075-0.133-0.078-0.067 0 0.12 0.075 0.393 0.157 0.553 0.122 0.247 0.26 0.43 0.54 0.72l0.265 0.275-0.128-0.018c-0.185-0.023-0.535-0.13-0.788-0.237-0.448-0.195-0.788-0.423-1.218-0.817-0.21-0.192-0.232-0.21-0.182-0.122 0.73 1.228 1.623 1.868 2.685 1.927 0.277 0.015 0.285 0.018 0.668 0.185 0.378 0.162 0.782 0.318 1.137 0.428 0.168 0.055 0.183 0.065 0.5 0.393 0.177 0.185 0.383 0.422 0.453 0.527 0.122 0.182 0.308 0.377 0.36 0.377 0.015 0 0-0.053-0.032-0.12-0.073-0.143-0.142-0.363-0.218-0.68-0.030-0.13-0.093-0.313-0.14-0.405-0.047-0.095-0.080-0.17-0.073-0.17s0.105 0.057 0.22 0.13c0.5 0.315 0.887 0.445 1.505 0.508 0.235 0.025 0.52 0.080 0.692 0.137 0.49 0.165 0.82 0.55 1.108 1.293 0.040 0.1 0.080 0.182 0.090 0.182 0.012 0 0.050-0.095 0.085-0.21 0.387-1.268 0.047-2.085-1.043-2.505-0.128-0.050-0.277-0.123-0.335-0.162-0.23-0.158-0.465-0.485-0.605-0.848-0.108-0.28-0.117-0.325-0.058-0.325 0.098 0 0.293 0.082 0.465 0.197 0.098 0.063 0.183 0.117 0.192 0.122 0.058 0.027-0.148-0.582-0.293-0.875-0.262-0.52-0.587-0.885-1.117-1.248-0.23-0.157-0.33-0.27-0.578-0.65-0.277-0.425-0.465-0.865-0.56-1.305-0.060-0.277-0.060-0.76 0-1.040 0.025-0.115 0.043-0.212 0.038-0.217-0.035-0.033-0.387 0.618-0.503 0.927-0.13 0.353-0.242 0.857-0.242 1.105 0 0.058-0.012 0.112-0.027 0.122-0.017 0.010-0.163-0.12-0.358-0.317-0.622-0.632-0.945-1.237-1.055-1.978-0.070-0.475-0.025-0.965 0.142-1.522 0.040-0.14 0.070-0.258 0.067-0.262-0.005-0.002-0.065 0.060-0.133 0.142zM20.837 6.58c0.285 0.17 0.473 0.325 0.602 0.502 0.128 0.17 0.22 0.34 0.2 0.36-0.008 0.008-0.067 0-0.133-0.015s-0.238-0.032-0.38-0.040c-0.142-0.008-0.308-0.025-0.367-0.037-0.227-0.053-0.56-0.2-0.56-0.253 0-0.035 0.177-0.14 0.317-0.185l0.133-0.043-0.063-0.080c-0.080-0.105-0.18-0.327-0.203-0.45l-0.017-0.095 0.135 0.107c0.075 0.063 0.225 0.162 0.335 0.228z"></path>
</symbol>
<symbol id="icon-knight-helmet-svgrepo-com" viewBox="0 0 32 32">
<path d="M18.256 0.416c-0.239 0.053-0.732 0.239-1.104 0.426-0.366 0.18-0.718 0.332-0.778 0.332s-0.372-0.133-0.692-0.299c-1.011-0.519-1.756-0.612-2.448-0.306-0.299 0.133-0.758 0.512-0.958 0.798l-0.126 0.173h0.645c0.792 0 1.004 0.1 1.004 0.466 0 0.319-0.146 0.366-1.098 0.366-3.279 0-5.082 0.971-5.887 3.18-0.306 0.845-0.406 1.417-0.446 2.674-0.046 1.497 0.073 2.554 0.525 4.756 0.332 1.63 0.339 1.69 0.346 2.86 0.007 0.964-0.013 1.27-0.107 1.57-0.153 0.492-0.485 0.971-0.838 1.224-0.273 0.186-0.326 0.199-0.931 0.199-0.565 0-0.685-0.020-0.985-0.18-0.305-0.159-0.651-0.485-0.877-0.825-0.14-0.206-0.047 0.785 0.12 1.337 0.466 1.477 1.317 2.541 2.381 2.973 0.332 0.133 0.492 0.153 1.31 0.153 1.051 0 1.497-0.093 2.262-0.459 0.26-0.12 0.599-0.339 0.765-0.486l0.293-0.266-0.273-0.592c-0.353-0.765-0.659-1.73-0.792-2.508-0.166-0.938-0.1-2.594 0.133-3.439 0.386-1.37 1.117-2.647 2.148-3.725 0.625-0.659 1.131-1.064 1.843-1.477 0.26-0.153 0.486-0.286 0.506-0.299 0.020-0.020-0.053-0.107-0.166-0.193-0.559-0.452-1.756-0.479-2.987-0.067-0.752 0.253-1.104 0.293-1.35 0.153-0.153-0.086-0.452-0.432-0.406-0.479 0.013-0.013 0.146 0.013 0.286 0.067 0.146 0.053 0.319 0.093 0.379 0.1 0.067 0 0.366-0.226 0.665-0.499 0.306-0.279 0.712-0.612 0.911-0.745 0.406-0.273 1.024-0.485 1.397-0.485 0.652 0 1.457 0.439 2.188 1.191l0.445 0.452 0.905-0.213-0.040-0.366c-0.080-0.712-0.326-1.257-0.732-1.616-0.479-0.426-1.636-0.758-2.388-0.678l-0.339 0.033 0.266-0.1c0.146-0.060 0.539-0.153 0.865-0.206 1.098-0.193 1.956 0 2.581 0.572 0.432 0.392 0.699 0.911 0.831 1.63l0.1 0.532 1.237 0.007c1.217 0.007 2.262 0.113 3.266 0.332l0.432 0.093 0.372-0.399c0.672-0.712 0.971-1.463 1.038-2.561 0.047-0.792-0.047-1.457-0.306-2.215-0.266-0.772-0.559-1.231-1.171-1.843-0.599-0.605-1.204-0.964-1.902-1.131-0.525-0.12-1.729-0.12-2.321 0.006z"></path>
<path d="M17.324 9.256c-3.246 0.539-5.674 2.534-6.486 5.328-0.359 1.237-0.359 2.608 0.007 3.871 0.233 0.812 0.812 1.962 1.337 2.654 0.485 0.645 0.525 0.758 0.725 2.062 0.080 0.512 0.12 1.177 0.12 1.929l0.007 1.144 0.332 0.073c0.186 0.040 2.341 0.492 4.789 1.004 2.455 0.512 4.53 0.951 4.623 0.971 0.146 0.040 0.133 0.007-0.133-0.293-0.406-0.452-0.778-1.104-0.871-1.53-0.16-0.692 0.126-1.144 0.885-1.417 0.233-0.080 0.592-0.206 0.805-0.279 0.206-0.073 0.379-0.153 0.379-0.18-0.007-0.020-0.506-0.286-1.117-0.585-1.723-0.845-3.432-1.936-5.361-3.432-1.177-0.911-1.437-1.171-1.437-1.423 0-0.273 0.266-0.552 0.525-0.552 0.153 0 0.399 0.16 1.051 0.678 2.608 2.095 5.468 3.825 7.264 4.404 0.406 0.133 0.758 0.239 0.778 0.239 0.027 0 0.027-0.339 0.007-0.752l-0.040-0.758 0.392-0.292c0.22-0.16 0.393-0.306 0.399-0.326 0-0.020-0.26-0.086-0.579-0.153-2.754-0.559-5.954-2.202-8.301-4.251l-0.26-0.233 0.206-0.239c0.32-0.359 0.4-0.692 0.267-1.091-0.060-0.173-0.086-0.339-0.060-0.366 0.027-0.020 2.076-0.605 4.556-1.291 2.967-0.825 4.503-1.277 4.503-1.337 0-0.146-1.27-1.364-1.843-1.769-1.111-0.792-2.554-1.417-3.931-1.716-0.852-0.18-2.721-0.233-3.539-0.093zM16.38 15.715c0.080 0.093 0.146 0.253 0.146 0.366 0 0.279-0.319 0.592-0.599 0.592-0.253 0-0.599-0.313-0.599-0.546 0.013-0.565 0.679-0.831 1.051-0.412z"></path>
<path d="M26.604 13.999c-0.366 0.126-0.672 0.239-0.678 0.239-0.007 0.007 0.226 0.778 0.512 1.723l0.519 1.716-0.758 1.41c-0.419 0.778-0.758 1.43-0.758 1.45 0 0.073 1.543 0.339 1.596 0.279 0.033-0.027 0.386-0.672 0.792-1.423 0.519-0.971 0.739-1.444 0.739-1.596 0-0.313-1.138-4.051-1.224-4.044-0.040 0.007-0.372 0.113-0.739 0.246z"></path>
<path d="M24.109 14.757c-0.386 0.113-0.705 0.206-0.712 0.213s0.146 0.559 0.346 1.217c0.2 0.665 0.366 1.244 0.366 1.291 0 0.040-0.246 0.545-0.546 1.117-0.306 0.572-0.559 1.058-0.572 1.084-0.027 0.053 0.326 0.22 1.031 0.485l0.412 0.16 0.665-1.257c0.399-0.738 0.672-1.33 0.672-1.444 0-0.1-0.193-0.831-0.432-1.616s-0.432-1.43-0.432-1.444c0-0.033-0.086-0.013-0.798 0.193z"></path>
<path d="M21.761 15.429c-0.645 0.186-0.718 0.22-0.692 0.339 0.013 0.080 0.1 0.399 0.186 0.712l0.153 0.572-0.253 0.492c-0.14 0.273-0.313 0.585-0.379 0.699l-0.126 0.206 0.253 0.166c0.133 0.093 0.446 0.273 0.685 0.406l0.432 0.246 0.512-0.958c0.293-0.539 0.512-1.031 0.512-1.138 0-0.206-0.479-1.969-0.532-1.956-0.020 0-0.359 0.1-0.752 0.213z"></path>
<path d="M19.42 16.101c-0.712 0.206-0.732 0.22-0.712 0.393 0.007 0.1-0.027 0.253-0.086 0.339-0.107 0.16-0.107 0.16 0.546 0.625l0.652 0.472 0.22-0.379c0.346-0.612 0.386-0.798 0.239-1.264l-0.126-0.392-0.732 0.206z"></path>
<path d="M11.95 28.42c-0.339 0.685-0.605 1.251-0.592 1.271 0.020 0.013 2.208 0.353 4.876 0.758 2.668 0.399 5.614 0.845 6.546 0.985s1.703 0.253 1.703 0.246c0.027-0.027-1.104-2.301-1.138-2.301-0.027 0-2.448-0.492-5.381-1.098s-5.348-1.098-5.362-1.098c-0.020-0-0.312 0.558-0.652 1.237z"></path>
</symbol>
</defs>
</svg>
